<svg width="239" height="236" viewBox="0 0 239 236" fill="none" xmlns="http://www.w3.org/2000/svg">
<path d="M209.125 29.5H29.875C18.9208 29.5 9.95831 38.35 9.95831 49.1667V127.833H29.875V49.1667H209.125V206.5C220.079 206.5 229.042 197.65 229.042 186.833V49.1667C229.042 38.35 220.079 29.5 209.125 29.5Z" fill="#1178B1"/>
<path d="M89.625 137.667C111.624 137.667 129.458 120.057 129.458 98.3333C129.458 76.6101 111.624 59 89.625 59C67.6257 59 49.7917 76.6101 49.7917 98.3333C49.7917 120.057 67.6257 137.667 89.625 137.667Z" fill="#1178B1"/>
<path d="M153.259 162.84C136.529 154.383 114.82 147.5 89.625 147.5C64.4304 147.5 42.7213 154.383 25.9913 162.84C21.1322 165.311 17.0616 169.064 14.2315 173.681C11.4013 178.298 9.9222 183.6 9.95835 188.997V216.333H169.292V188.997C169.292 177.983 163.217 167.855 153.259 162.84Z" fill="#1178B1"/>
</svg>
