<svg width="239" height="236" viewBox="0 0 239 236" fill="none" xmlns="http://www.w3.org/2000/svg">
<path d="M209.125 49.1667C198.071 45.725 185.922 44.25 174.271 44.25C154.852 44.25 133.94 48.1833 119.5 59C105.06 48.1833 84.1479 44.25 64.7291 44.25C45.3104 44.25 24.3979 48.1833 9.95831 59V211.417C24.3979 200.6 45.3104 196.667 64.7291 196.667C84.1479 196.667 105.06 200.6 119.5 211.417C133.94 200.6 154.852 196.667 174.271 196.667C185.922 196.667 198.071 198.142 209.125 201.583C216.594 204.042 223.067 206.992 229.042 211.417V59C223.067 54.575 216.594 51.625 209.125 49.1667ZM209.125 181.917C198.171 178.475 186.221 177 174.271 177C157.342 177 132.944 183.392 119.5 191.75V78.6667C132.944 70.3083 157.342 63.9167 174.271 63.9167C186.221 63.9167 198.171 65.3917 209.125 68.8333V181.917Z" fill="#1178B1"/>
</svg>
